<?xml version="1.0" encoding="UTF-8"?>
<!DOCTYPE svg PUBLIC "-//W3C//DTD SVG 1.1//EN" "http://www.w3.org/Graphics/SVG/1.1/DTD/svg11.dtd">
<svg xmlns="http://www.w3.org/2000/svg" version="1.1" width="576px" height="603px" style="shape-rendering:geometricPrecision; text-rendering:geometricPrecision; image-rendering:optimizeQuality; fill-rule:evenodd; clip-rule:evenodd" xmlns:xlink="http://www.w3.org/1999/xlink">
<g><path style="opacity:0.202" fill="#fbfcfb" d="M 575.5,20.5 C 575.5,48.8333 575.5,77.1667 575.5,105.5C 570.167,109.167 570.167,112.833 575.5,116.5C 575.5,144.833 575.5,173.167 575.5,201.5C 570.167,205.167 570.167,208.833 575.5,212.5C 575.5,240.833 575.5,269.167 575.5,297.5C 570.167,301.167 570.167,304.833 575.5,308.5C 575.5,337.167 575.5,365.833 575.5,394.5C 570.167,397.833 570.167,401.167 575.5,404.5C 575.5,433.167 575.5,461.833 575.5,490.5C 570.167,494.167 570.167,497.833 575.5,501.5C 575.5,529.833 575.5,558.167 575.5,586.5C 571.898,591.6 567.231,595.433 561.5,598C 534.833,598.667 508.167,598.667 481.5,598C 479.162,597.163 476.828,596.33 474.5,595.5C 472.172,596.33 469.838,597.163 467.5,598C 441.167,598.667 414.833,598.667 388.5,598C 385.804,597.235 383.304,596.068 381,594.5C 379.065,596.102 376.899,597.269 374.5,598C 347.833,598.667 321.167,598.667 294.5,598C 292.316,597.133 290.149,596.299 288,595.5C 285.46,596.185 282.96,597.019 280.5,598C 254.167,598.667 227.833,598.667 201.5,598C 199.162,597.163 196.828,596.33 194.5,595.5C 192.172,596.33 189.838,597.163 187.5,598C 161.167,598.667 134.833,598.667 108.5,598C 106.01,596.851 103.51,595.684 101,594.5C 98.4902,595.684 95.9902,596.851 93.5,598C 67.1667,598.667 40.8333,598.667 14.5,598C 8,595.5 3.5,591 1,584.5C 0.333333,557.5 0.333333,530.5 1,503.5C 2.14898,501.01 3.31565,498.51 4.5,496C 3.31565,493.49 2.14898,490.99 1,488.5C 0.333333,461.167 0.333333,433.833 1,406.5C 1.63949,403.888 2.80616,401.554 4.5,399.5C 3.05837,396.95 1.8917,394.284 1,391.5C 0.333333,364.5 0.333333,337.5 1,310.5C 2.14898,308.01 3.31565,305.51 4.5,303C 3.31565,300.49 2.14898,297.99 1,295.5C 0.333333,268.5 0.333333,241.5 1,214.5C 2.14898,212.01 3.31565,209.51 4.5,207C 3.31565,204.49 2.14898,201.99 1,199.5C 0.333333,172.5 0.333333,145.5 1,118.5C 2.14898,116.01 3.31565,113.51 4.5,111C 3.31565,108.49 2.14898,105.99 1,103.5C 0.333333,76.5 0.333333,49.5 1,22.5C 3.5,16 8,11.5 14.5,9C 40.8333,8.33333 67.1667,8.33333 93.5,9C 95.9902,10.149 98.4902,11.3156 101,12.5C 103.51,11.3156 106.01,10.149 108.5,9C 134.833,8.33333 161.167,8.33333 187.5,9C 189.838,9.83657 192.172,10.6699 194.5,11.5C 196.828,10.6699 199.162,9.83657 201.5,9C 227.833,8.33333 254.167,8.33333 280.5,9C 282.838,9.83657 285.172,10.6699 287.5,11.5C 289.828,10.6699 292.162,9.83657 294.5,9C 321.167,8.33333 347.833,8.33333 374.5,9C 376.838,9.83657 379.172,10.6699 381.5,11.5C 383.828,10.6699 386.162,9.83657 388.5,9C 414.833,8.33333 441.167,8.33333 467.5,9C 469.838,9.83657 472.172,10.6699 474.5,11.5C 476.828,10.6699 479.162,9.83657 481.5,9C 508.167,8.33333 534.833,8.33333 561.5,9C 567.231,11.5669 571.898,15.4002 575.5,20.5 Z"/></g>
<g><path style="opacity:0.955" fill="#0f884c" d="M 12.5,19.5 C 40.5,19.5 68.5,19.5 96.5,19.5C 96.5,48.1667 96.5,76.8333 96.5,105.5C 68.5,105.5 40.5,105.5 12.5,105.5C 12.5,76.8333 12.5,48.1667 12.5,19.5 Z"/></g>
<g><path style="opacity:0.955" fill="#0f884c" d="M 189.5,19.5 C 189.5,48.1667 189.5,76.8333 189.5,105.5C 161.5,105.5 133.5,105.5 105.5,105.5C 105.5,76.8333 105.5,48.1667 105.5,19.5C 133.5,19.5 161.5,19.5 189.5,19.5 Z"/></g>
<g><path style="opacity:0.96" fill="#0f884d" d="M 199.5,19.5 C 227.5,19.5 255.5,19.5 283.5,19.5C 283.5,48.1667 283.5,76.8333 283.5,105.5C 255.5,105.5 227.5,105.5 199.5,105.5C 199.5,76.8333 199.5,48.1667 199.5,19.5 Z"/></g>
<g><path style="opacity:0.96" fill="#11884d" d="M 292.5,19.5 C 320.5,19.5 348.5,19.5 376.5,19.5C 376.5,48.5 376.5,77.5 376.5,106.5C 348.5,106.5 320.5,106.5 292.5,106.5C 292.5,77.5 292.5,48.5 292.5,19.5 Z"/></g>
<g><path style="opacity:0.563" fill="#7fbfa0" d="M 12.5,19.5 C 12.5,48.1667 12.5,76.8333 12.5,105.5C 40.5,105.5 68.5,105.5 96.5,105.5C 68.3382,106.498 40.0049,106.831 11.5,106.5C 11.1686,77.3285 11.502,48.3285 12.5,19.5 Z"/></g>
<g><path style="opacity:0.563" fill="#92c8ad" d="M 189.5,19.5 C 190.498,48.3285 190.831,77.3285 190.5,106.5C 161.995,106.831 133.662,106.498 105.5,105.5C 133.5,105.5 161.5,105.5 189.5,105.5C 189.5,76.8333 189.5,48.1667 189.5,19.5 Z"/></g>
<g><path style="opacity:0.566" fill="#76bb99" d="M 199.5,19.5 C 199.5,48.1667 199.5,76.8333 199.5,105.5C 227.5,105.5 255.5,105.5 283.5,105.5C 255.338,106.498 227.005,106.831 198.5,106.5C 198.169,77.3285 198.502,48.3285 199.5,19.5 Z"/></g>
<g><path style="opacity:0.566" fill="#66b38d" d="M 386.5,19.5 C 386.5,48.1667 386.5,76.8333 386.5,105.5C 414.167,105.5 441.833,105.5 469.5,105.5C 469.5,76.8333 469.5,48.1667 469.5,19.5C 470.498,48.3285 470.831,77.3285 470.5,106.5C 442.167,106.5 413.833,106.5 385.5,106.5C 385.169,77.3285 385.502,48.3285 386.5,19.5 Z"/></g>
<g><path style="opacity:0.96" fill="#0f884c" d="M 386.5,19.5 C 414.167,19.5 441.833,19.5 469.5,19.5C 469.5,48.1667 469.5,76.8333 469.5,105.5C 441.833,105.5 414.167,105.5 386.5,105.5C 386.5,76.8333 386.5,48.1667 386.5,19.5 Z"/></g>
<g><path style="opacity:0.566" fill="#9bcdb4" d="M 479.5,19.5 C 479.5,48.1667 479.5,76.8333 479.5,105.5C 507.5,105.5 535.5,105.5 563.5,105.5C 563.5,76.8333 563.5,48.1667 563.5,19.5C 564.498,48.3285 564.831,77.3285 564.5,106.5C 535.833,106.5 507.167,106.5 478.5,106.5C 478.169,77.3285 478.502,48.3285 479.5,19.5 Z"/></g>
<g><path style="opacity:0.96" fill="#0f884c" d="M 479.5,19.5 C 507.5,19.5 535.5,19.5 563.5,19.5C 563.5,48.1667 563.5,76.8333 563.5,105.5C 535.5,105.5 507.5,105.5 479.5,105.5C 479.5,76.8333 479.5,48.1667 479.5,19.5 Z"/></g>
<g><path style="opacity:0.96" fill="#0f884d" d="M 12.5,115.5 C 40.5,115.5 68.5,115.5 96.5,115.5C 96.5,144.167 96.5,172.833 96.5,201.5C 68.5,201.5 40.5,201.5 12.5,201.5C 12.5,172.833 12.5,144.167 12.5,115.5 Z"/></g>
<g><path style="opacity:0.96" fill="#57b952" d="M 105.5,115.5 C 133.5,115.5 161.5,115.5 189.5,115.5C 189.5,144.5 189.5,173.5 189.5,202.5C 161.5,202.5 133.5,202.5 105.5,202.5C 105.5,173.5 105.5,144.5 105.5,115.5 Z"/></g>
<g><path style="opacity:0.964" fill="#57b952" d="M 199.5,115.5 C 227.5,115.5 255.5,115.5 283.5,115.5C 283.5,144.167 283.5,172.833 283.5,201.5C 255.5,201.5 227.5,201.5 199.5,201.5C 199.5,172.833 199.5,144.167 199.5,115.5 Z"/></g>
<g><path style="opacity:0.965" fill="#57b952" d="M 292.5,115.5 C 320.5,115.5 348.5,115.5 376.5,115.5C 376.5,144.5 376.5,173.5 376.5,202.5C 348.5,202.5 320.5,202.5 292.5,202.5C 292.5,173.5 292.5,144.5 292.5,115.5 Z"/></g>
<g><path style="opacity:0.965" fill="#11884d" d="M 479.5,115.5 C 507.5,115.5 535.5,115.5 563.5,115.5C 563.5,144.5 563.5,173.5 563.5,202.5C 535.5,202.5 507.5,202.5 479.5,202.5C 479.5,173.5 479.5,144.5 479.5,115.5 Z"/></g>
<g><path style="opacity:0.563" fill="#63b18a" d="M 12.5,115.5 C 12.5,144.167 12.5,172.833 12.5,201.5C 40.5,201.5 68.5,201.5 96.5,201.5C 68.3382,202.498 40.0049,202.831 11.5,202.5C 11.1686,173.329 11.502,144.329 12.5,115.5 Z"/></g>
<g><path style="opacity:0.566" fill="#8ace86" d="M 199.5,115.5 C 199.5,144.167 199.5,172.833 199.5,201.5C 227.5,201.5 255.5,201.5 283.5,201.5C 255.338,202.498 227.005,202.831 198.5,202.5C 198.169,173.329 198.502,144.329 199.5,115.5 Z"/></g>
<g><path style="opacity:0.566" fill="#82cb7e" d="M 385.5,115.5 C 413.833,115.5 442.167,115.5 470.5,115.5C 470.5,144.5 470.5,173.5 470.5,202.5C 442.167,202.5 413.833,202.5 385.5,202.5C 385.5,173.5 385.5,144.5 385.5,115.5 Z"/></g>
<g><path style="opacity:0.964" fill="#57b951" d="M 386.5,116.5 C 414.167,116.5 441.833,116.5 469.5,116.5C 469.5,144.833 469.5,173.167 469.5,201.5C 441.833,201.5 414.167,201.5 386.5,201.5C 386.5,173.167 386.5,144.833 386.5,116.5 Z"/></g>
<g><path style="opacity:0.562" fill="#7dbe9e" d="M 96.5,212.5 C 68.5,212.5 40.5,212.5 12.5,212.5C 12.5,241.167 12.5,269.833 12.5,298.5C 11.502,269.671 11.1686,240.671 11.5,211.5C 40.0049,211.169 68.3382,211.502 96.5,212.5 Z"/></g>
<g><path style="opacity:0.96" fill="#0f884d" d="M 96.5,212.5 C 96.5,241.167 96.5,269.833 96.5,298.5C 68.5,298.5 40.5,298.5 12.5,298.5C 12.5,269.833 12.5,241.167 12.5,212.5C 40.5,212.5 68.5,212.5 96.5,212.5 Z"/></g>
<g><path style="opacity:0.96" fill="#57b952" d="M 105.5,212.5 C 133.5,212.5 161.5,212.5 189.5,212.5C 189.5,241.167 189.5,269.833 189.5,298.5C 161.5,298.5 133.5,298.5 105.5,298.5C 105.5,269.833 105.5,241.167 105.5,212.5 Z"/></g>
<g><path style="opacity:0.564" fill="#bde3bb" d="M 105.5,212.5 C 133.662,211.502 161.995,211.169 190.5,211.5C 190.831,240.671 190.498,269.671 189.5,298.5C 189.5,269.833 189.5,241.167 189.5,212.5C 161.5,212.5 133.5,212.5 105.5,212.5 Z"/></g>
<g><path style="opacity:0.567" fill="#8093c4" d="M 283.5,212.5 C 255.5,212.5 227.5,212.5 199.5,212.5C 199.5,241.167 199.5,269.833 199.5,298.5C 198.502,269.671 198.169,240.671 198.5,211.5C 227.005,211.169 255.338,211.502 283.5,212.5 Z"/></g>
<g><path style="opacity:0.964" fill="#3350a0" d="M 283.5,212.5 C 283.5,241.167 283.5,269.833 283.5,298.5C 255.5,298.5 227.5,298.5 199.5,298.5C 199.5,269.833 199.5,241.167 199.5,212.5C 227.5,212.5 255.5,212.5 283.5,212.5 Z"/></g>
<g><path style="opacity:0.965" fill="#f4d22d" d="M 292.5,211.5 C 320.5,211.5 348.5,211.5 376.5,211.5C 376.5,240.5 376.5,269.5 376.5,298.5C 348.5,298.5 320.5,298.5 292.5,298.5C 292.5,269.5 292.5,240.5 292.5,211.5 Z"/></g>
<g><path style="opacity:0.567" fill="#f36f72" d="M 469.5,298.5 C 469.5,269.833 469.5,241.167 469.5,212.5C 441.833,212.5 414.167,212.5 386.5,212.5C 386.5,241.167 386.5,269.833 386.5,298.5C 385.502,269.671 385.169,240.671 385.5,211.5C 413.833,211.5 442.167,211.5 470.5,211.5C 470.831,240.671 470.498,269.671 469.5,298.5 Z"/></g>
<g><path style="opacity:0.964" fill="#ed3237" d="M 469.5,298.5 C 441.833,298.5 414.167,298.5 386.5,298.5C 386.5,269.833 386.5,241.167 386.5,212.5C 414.167,212.5 441.833,212.5 469.5,212.5C 469.5,241.167 469.5,269.833 469.5,298.5 Z"/></g>
<g><path style="opacity:0.965" fill="#11884d" d="M 479.5,211.5 C 507.5,211.5 535.5,211.5 563.5,211.5C 563.5,240.5 563.5,269.5 563.5,298.5C 535.5,298.5 507.5,298.5 479.5,298.5C 479.5,269.5 479.5,240.5 479.5,211.5 Z"/></g>
<g><path style="opacity:0.96" fill="#12884d" d="M 11.5,308.5 C 39.8333,308.5 68.1667,308.5 96.5,308.5C 96.5,337.167 96.5,365.833 96.5,394.5C 68.1667,394.5 39.8333,394.5 11.5,394.5C 11.5,365.833 11.5,337.167 11.5,308.5 Z"/></g>
<g><path style="opacity:0.957" fill="#57b951" d="M 105.5,308.5 C 133.5,308.5 161.5,308.5 189.5,308.5C 189.5,337.167 189.5,365.833 189.5,394.5C 161.5,394.5 133.5,394.5 105.5,394.5C 105.5,365.833 105.5,337.167 105.5,308.5 Z"/></g>
<g><path style="opacity:0.565" fill="#f58c8e" d="M 283.5,308.5 C 255.5,308.5 227.5,308.5 199.5,308.5C 199.5,337.167 199.5,365.833 199.5,394.5C 198.502,365.671 198.169,336.671 198.5,307.5C 227.005,307.169 255.338,307.502 283.5,308.5 Z"/></g>
<g><path style="opacity:0.963" fill="#ed3237" d="M 283.5,308.5 C 283.5,337.167 283.5,365.833 283.5,394.5C 255.5,394.5 227.5,394.5 199.5,394.5C 199.5,365.833 199.5,337.167 199.5,308.5C 227.5,308.5 255.5,308.5 283.5,308.5 Z"/></g>
<g><path style="opacity:0.963" fill="#3350a0" d="M 292.5,308.5 C 320.5,308.5 348.5,308.5 376.5,308.5C 376.5,337.167 376.5,365.833 376.5,394.5C 348.5,394.5 320.5,394.5 292.5,394.5C 292.5,365.833 292.5,337.167 292.5,308.5 Z"/></g>
<g><path style="opacity:0.566" fill="#f8e175" d="M 469.5,394.5 C 469.5,365.833 469.5,337.167 469.5,308.5C 441.833,308.5 414.167,308.5 386.5,308.5C 386.5,337.167 386.5,365.833 386.5,394.5C 385.502,365.671 385.169,336.671 385.5,307.5C 413.833,307.5 442.167,307.5 470.5,307.5C 470.831,336.671 470.498,365.671 469.5,394.5 Z"/></g>
<g><path style="opacity:0.964" fill="#f3d22b" d="M 469.5,394.5 C 441.833,394.5 414.167,394.5 386.5,394.5C 386.5,365.833 386.5,337.167 386.5,308.5C 414.167,308.5 441.833,308.5 469.5,308.5C 469.5,337.167 469.5,365.833 469.5,394.5 Z"/></g>
<g><path style="opacity:0.965" fill="#0f884c" d="M 479.5,308.5 C 507.5,308.5 535.5,308.5 563.5,308.5C 563.5,337.167 563.5,365.833 563.5,394.5C 535.5,394.5 507.5,394.5 479.5,394.5C 479.5,365.833 479.5,337.167 479.5,308.5 Z"/></g>
<g><path style="opacity:0.96" fill="#12884d" d="M 11.5,404.5 C 39.8333,404.5 68.1667,404.5 96.5,404.5C 96.5,433.167 96.5,461.833 96.5,490.5C 68.1667,490.5 39.8333,490.5 11.5,490.5C 11.5,461.833 11.5,433.167 11.5,404.5 Z"/></g>
<g><path style="opacity:0.96" fill="#57b951" d="M 105.5,404.5 C 133.5,404.5 161.5,404.5 189.5,404.5C 189.5,433.167 189.5,461.833 189.5,490.5C 161.5,490.5 133.5,490.5 105.5,490.5C 105.5,461.833 105.5,433.167 105.5,404.5 Z"/></g>
<g><path style="opacity:0.965" fill="#f4d22c" d="M 199.5,404.5 C 227.5,404.5 255.5,404.5 283.5,404.5C 283.5,433.167 283.5,461.833 283.5,490.5C 255.5,490.5 227.5,490.5 199.5,490.5C 199.5,461.833 199.5,433.167 199.5,404.5 Z"/></g>
<g><path style="opacity:0.965" fill="#ec3236" d="M 292.5,404.5 C 320.5,404.5 348.5,404.5 376.5,404.5C 376.5,433.167 376.5,461.833 376.5,490.5C 348.5,490.5 320.5,490.5 292.5,490.5C 292.5,461.833 292.5,433.167 292.5,404.5 Z"/></g>
<g><path style="opacity:0.965" fill="#3451a0" d="M 385.5,404.5 C 413.833,404.5 442.167,404.5 470.5,404.5C 470.5,433.167 470.5,461.833 470.5,490.5C 442.167,490.5 413.833,490.5 385.5,490.5C 385.5,461.833 385.5,433.167 385.5,404.5 Z"/></g>
<g><path style="opacity:0.965" fill="#0f884c" d="M 479.5,404.5 C 507.5,404.5 535.5,404.5 563.5,404.5C 563.5,433.167 563.5,461.833 563.5,490.5C 535.5,490.5 507.5,490.5 479.5,490.5C 479.5,461.833 479.5,433.167 479.5,404.5 Z"/></g>
<g><path style="opacity:0.563" fill="#faeca7" d="M 199.5,404.5 C 199.5,433.167 199.5,461.833 199.5,490.5C 227.5,490.5 255.5,490.5 283.5,490.5C 255.338,491.498 227.005,491.831 198.5,491.5C 198.169,462.329 198.502,433.329 199.5,404.5 Z"/></g>
<g><path style="opacity:0.955" fill="#0f884c" d="M 12.5,500.5 C 40.5,500.5 68.5,500.5 96.5,500.5C 96.5,529.167 96.5,557.833 96.5,586.5C 68.5,586.5 40.5,586.5 12.5,586.5C 12.5,557.833 12.5,529.167 12.5,500.5 Z"/></g>
<g><path style="opacity:0.955" fill="#0f884c" d="M 189.5,500.5 C 189.5,529.167 189.5,557.833 189.5,586.5C 161.5,586.5 133.5,586.5 105.5,586.5C 105.5,557.833 105.5,529.167 105.5,500.5C 133.5,500.5 161.5,500.5 189.5,500.5 Z"/></g>
<g><path style="opacity:0.96" fill="#0f884d" d="M 199.5,500.5 C 227.5,500.5 255.5,500.5 283.5,500.5C 283.5,529.167 283.5,557.833 283.5,586.5C 255.5,586.5 227.5,586.5 199.5,586.5C 199.5,557.833 199.5,529.167 199.5,500.5 Z"/></g>
<g><path style="opacity:0.96" fill="#12884d" d="M 292.5,500.5 C 320.5,500.5 348.5,500.5 376.5,500.5C 376.5,529.5 376.5,558.5 376.5,587.5C 348.5,587.5 320.5,587.5 292.5,587.5C 292.5,558.5 292.5,529.5 292.5,500.5 Z"/></g>
<g><path style="opacity:0.559" fill="#84c2a4" d="M 12.5,500.5 C 12.5,529.167 12.5,557.833 12.5,586.5C 40.5,586.5 68.5,586.5 96.5,586.5C 68.3382,587.498 40.0049,587.831 11.5,587.5C 11.1686,558.329 11.502,529.329 12.5,500.5 Z"/></g>
<g><path style="opacity:0.559" fill="#96cbb1" d="M 189.5,500.5 C 190.498,529.329 190.831,558.329 190.5,587.5C 161.995,587.831 133.662,587.498 105.5,586.5C 133.5,586.5 161.5,586.5 189.5,586.5C 189.5,557.833 189.5,529.167 189.5,500.5 Z"/></g>
<g><path style="opacity:0.562" fill="#7bbe9d" d="M 199.5,500.5 C 199.5,529.167 199.5,557.833 199.5,586.5C 227.5,586.5 255.5,586.5 283.5,586.5C 255.338,587.498 227.005,587.831 198.5,587.5C 198.169,558.329 198.502,529.329 199.5,500.5 Z"/></g>
<g><path style="opacity:0.562" fill="#6ab58f" d="M 386.5,500.5 C 386.5,529.167 386.5,557.833 386.5,586.5C 414.167,586.5 441.833,586.5 469.5,586.5C 469.5,557.833 469.5,529.167 469.5,500.5C 470.498,529.329 470.831,558.329 470.5,587.5C 442.167,587.5 413.833,587.5 385.5,587.5C 385.169,558.329 385.502,529.329 386.5,500.5 Z"/></g>
<g><path style="opacity:0.96" fill="#0f884c" d="M 386.5,500.5 C 414.167,500.5 441.833,500.5 469.5,500.5C 469.5,529.167 469.5,557.833 469.5,586.5C 441.833,586.5 414.167,586.5 386.5,586.5C 386.5,557.833 386.5,529.167 386.5,500.5 Z"/></g>
<g><path style="opacity:0.562" fill="#9ecfb7" d="M 479.5,500.5 C 479.5,529.167 479.5,557.833 479.5,586.5C 507.5,586.5 535.5,586.5 563.5,586.5C 563.5,557.833 563.5,529.167 563.5,500.5C 564.498,529.329 564.831,558.329 564.5,587.5C 535.833,587.5 507.167,587.5 478.5,587.5C 478.169,558.329 478.502,529.329 479.5,500.5 Z"/></g>
<g><path style="opacity:0.96" fill="#0f884c" d="M 479.5,500.5 C 507.5,500.5 535.5,500.5 563.5,500.5C 563.5,529.167 563.5,557.833 563.5,586.5C 535.5,586.5 507.5,586.5 479.5,586.5C 479.5,557.833 479.5,529.167 479.5,500.5 Z"/></g>
</svg>
